<?xml version="1.0" standalone="no"?>
<!DOCTYPE svg PUBLIC "-//W3C//DTD SVG 20010904//EN"
 "http://www.w3.org/TR/2001/REC-SVG-20010904/DTD/svg10.dtd">
<svg version="1.0" xmlns="http://www.w3.org/2000/svg"
 width="776.000000pt" height="1280.000000pt" viewBox="0 0 776.000000 1280.000000"
 preserveAspectRatio="xMidYMid meet">
<metadata>
Created by potrace 1.15, written by Peter Selinger 2001-2017
</metadata>
<g transform="translate(0.000000,1280.000000) scale(0.100000,-0.100000)"
fill="#ffffff" stroke="none">
<path d="M5650 12794 c-331 -37 -581 -110 -873 -255 -341 -169 -633 -379 -931
-670 l-140 -136 -139 161 c-195 224 -431 457 -560 552 -239 177 -472 266 -735
281 -377 20 -724 -129 -1047 -452 -416 -415 -650 -1005 -606 -1528 106 -1261
495 -2229 1437 -3568 115 -163 279 -390 554 -764 371 -505 752 -1053 836
-1202 16 -29 31 -53 35 -53 3 0 16 44 28 98 52 216 178 557 288 776 165 330
411 697 694 1036 247 297 407 466 1099 1165 477 481 621 634 817 869 368 439
584 795 798 1316 251 612 273 1148 65 1560 -199 393 -667 707 -1185 796 -87
14 -363 26 -435 18z m-3243 -1797 l36 -33 233 -1169 c128 -642 235 -1169 237
-1171 1 -2 29 128 60 289 32 161 108 544 168 852 61 308 117 570 125 583 21
32 73 62 108 62 41 0 103 -38 119 -74 8 -17 74 -211 147 -431 73 -220 136
-404 141 -409 7 -8 1013 -54 1206 -56 l62 0 17 61 c52 185 221 309 420 309
177 0 331 -101 405 -265 19 -41 23 -68 23 -155 1 -99 -1 -109 -31 -170 -58
-118 -136 -188 -259 -231 -48 -17 -77 -20 -159 -17 -88 3 -108 7 -168 36 -70
32 -178 129 -192 171 -5 16 -12 19 -38 14 -50 -8 -1388 47 -1424 58 -57 18
-77 57 -153 286 -40 120 -75 221 -79 225 -4 4 -67 -299 -140 -675 -74 -375
-156 -794 -183 -930 -27 -137 -55 -262 -63 -278 -39 -75 -170 -79 -218 -6 -9
15 -116 527 -262 1258 -136 679 -248 1235 -249 1237 -2 1 -19 -53 -38 -120
-88 -304 -241 -815 -255 -850 -8 -21 -29 -48 -47 -61 -30 -21 -42 -22 -331
-28 -165 -4 -390 -8 -500 -10 l-200 -3 -33 108 c-18 59 -32 109 -30 111 2 1
208 12 458 24 250 13 458 26 462 29 3 4 100 320 214 702 190 635 211 698 240
728 28 28 39 32 83 32 44 0 56 -5 88 -33z"/>
<path d="M921 8915 c-1 -5 6 -77 15 -160 21 -205 30 -784 15 -1005 -40 -610
-157 -1144 -349 -1590 -46 -106 -50 -111 -142 -195 -351 -321 -527 -670 -434
-860 27 -57 74 -85 140 -85 243 0 516 358 688 900 70 221 218 1145 255 1593
20 233 24 466 12 602 -16 167 -41 283 -103 473 -27 84 -60 194 -73 245 -13 51
-24 88 -24 82z"/>
<path d="M6573 8695 c34 -115 85 -307 127 -475 229 -914 312 -1477 314 -2120
l1 -285 -41 -50 c-132 -159 -203 -348 -191 -514 7 -113 42 -172 127 -217 27
-15 55 -19 125 -18 123 0 195 23 281 87 87 66 137 132 165 219 19 59 21 83 16
185 -2 65 -18 197 -35 293 -17 96 -36 211 -42 255 -48 329 -184 923 -289 1259
-89 283 -138 408 -361 911 -55 126 -122 286 -146 355 -41 111 -67 171 -51 115z"/>
<path d="M2410 6048 c0 -10 52 -217 87 -343 61 -226 130 -444 308 -984 248
-753 319 -1017 375 -1396 35 -237 43 -385 37 -669 -6 -303 -19 -426 -44 -441
-233 -143 -348 -266 -404 -432 -28 -86 -24 -214 10 -285 58 -121 175 -181 301
-153 126 27 275 182 367 381 97 211 107 283 107 769 0 283 -3 392 -17 510 -50
422 -147 816 -305 1245 -105 286 -228 565 -484 1100 -96 201 -210 439 -253
530 -76 161 -85 179 -85 168z"/>
<path d="M4340 5999 c0 -3 11 -70 25 -149 14 -80 62 -370 106 -645 121 -761
171 -1022 264 -1395 239 -956 658 -1696 1304 -2301 290 -271 671 -377 881
-244 109 69 167 219 141 361 -36 194 -182 333 -392 370 -112 20 -265 4 -389
-41 l-45 -17 -109 114 c-278 289 -500 615 -692 1013 -156 324 -254 591 -498
1345 -248 770 -354 1062 -522 1438 -61 136 -74 163 -74 151z"/>
</g>
</svg>
